<svg aria-hidden="true" style="position:absolute;width:0;height:0;overflow:hidden" xmlns="http://www.w3.org/2000/svg">
    <defs>
        <symbol id="icon-agree" viewBox="0 0 32 32">
            <path fill="#fff" style="fill:var(--color1, #fff);stroke:var(--color1, #fff)" stroke="#fff" stroke-width=".372" d="m4.821 15.389-.17-.163-.17.16-2.375 2.252.187.18 8.783 8.376.17-.163L29.92 8.217l-.187-.177-2.343-2.234-.17.163-16.144 15.388-6.255-5.967z"/>
        </symbol>
        <symbol id="icon-email-black" viewBox="0 0 32 32">
            <path fill="#2196f3" style="fill:var(--color2, #2196f3)" d="M26.683 5.337H5.337a2.664 2.664 0 0 0-2.654 2.668l-.014 16.01a2.676 2.676 0 0 0 2.668 2.668h21.346a2.676 2.676 0 0 0 2.668-2.668V8.005a2.676 2.676 0 0 0-2.668-2.668zm-.534 5.671-9.431 5.895a1.347 1.347 0 0 1-1.422-.003l.006.003-9.431-5.895a1.134 1.134 0 1 1 1.205-1.919l-.004-.003 8.939 5.589 8.939-5.591a1.133 1.133 0 1 1 1.206 1.918l-.005.003z"/>
        </symbol>
        <symbol id="icon-person" viewBox="0 0 32 32">
            <path fill="#2196f3" style="fill:var(--color2, #2196f3)" d="M16.01 16.01a5.337 5.337 0 0 0 0-10.674 5.337 5.337 0 0 0 0 10.674zm0 2.668c-3.563 0-10.673 1.788-10.673 5.337v1.334c0 .733.599 1.334 1.334 1.334h18.678c.733 0 1.334-.601 1.334-1.334v-1.334c0-3.549-7.112-5.337-10.673-5.337z"/>
        </symbol>
        <symbol id="icon-phone-black" viewBox="0 0 32 32">
            <path fill="#2196f3" style="fill:var(--color2, #2196f3)" d="m24.897 19.786-3.27-.374a2.557 2.557 0 0 0-2.111.732l-2.369 2.369c-3.671-1.895-6.589-4.813-8.432-8.377l-.051-.108 2.384-2.378a2.554 2.554 0 0 0 .732-2.124l.001.012-.374-3.245a2.579 2.579 0 0 0-2.558-2.277h-2.23c-1.455 0-2.665 1.21-2.576 2.665.683 10.993 9.476 19.772 20.457 20.455 1.453.089 2.665-1.121 2.665-2.576v-2.239a2.55 2.55 0 0 0-2.254-2.534l-.012-.001z"/>
        </symbol>
        <symbol id="icon-send-to" viewBox="0 0 32 32">
            <path fill="#fff" style="fill:var(--color1, #fff)" d="M32.007 0 0 18.004l10.229 3.788 15.777-14.79-12 16.19.009.003-.012-.003v8.815l5.736-6.692 7.268 2.691 5-28.006z"/>
        </symbol>
    </defs>
</svg>